<mxfile host="app.diagrams.net" modified="2024-03-11T09:14:31.960Z" agent="Mozilla/5.0 (Windows NT 10.0; Win64; x64) AppleWebKit/537.36 (KHTML, like Gecko) Chrome/122.0.0.0 Safari/537.36 Edg/122.0.0.0" etag="LcnBsrDnzHFfheY_dtvM" version="24.0.4" type="device">
  <diagram name="페이지-1" id="_-nOEzy3unsmqoLpayP6">
    <mxGraphModel dx="1042" dy="569" grid="1" gridSize="10" guides="1" tooltips="1" connect="1" arrows="1" fold="1" page="1" pageScale="1" pageWidth="827" pageHeight="1169" math="0" shadow="0">
      <root>
        <mxCell id="0" />
        <mxCell id="1" parent="0" />
        <mxCell id="dhGdFR0NYjG07fjvQZzu-2" value="GameController" style="swimlane;fontStyle=0;childLayout=stackLayout;horizontal=1;startSize=30;horizontalStack=0;resizeParent=1;resizeParentMax=0;resizeLast=0;collapsible=1;marginBottom=0;whiteSpace=wrap;html=1;" vertex="1" parent="1">
          <mxGeometry x="80" y="270" width="190" height="60" as="geometry" />
        </mxCell>
        <mxCell id="dhGdFR0NYjG07fjvQZzu-3" value="generate&lt;span style=&quot;background-color: initial;&quot;&gt;Game(gameRequest)&lt;/span&gt;" style="text;strokeColor=none;fillColor=none;align=left;verticalAlign=middle;spacingLeft=4;spacingRight=4;overflow=hidden;points=[[0,0.5],[1,0.5]];portConstraint=eastwest;rotatable=0;whiteSpace=wrap;html=1;" vertex="1" parent="dhGdFR0NYjG07fjvQZzu-2">
          <mxGeometry y="30" width="190" height="30" as="geometry" />
        </mxCell>
        <mxCell id="dhGdFR0NYjG07fjvQZzu-8" value="" style="endArrow=classic;html=1;rounded=0;" edge="1" parent="1">
          <mxGeometry width="50" height="50" relative="1" as="geometry">
            <mxPoint x="170" y="330" as="sourcePoint" />
            <mxPoint x="170" y="400" as="targetPoint" />
          </mxGeometry>
        </mxCell>
        <mxCell id="dhGdFR0NYjG07fjvQZzu-9" value="GameService" style="swimlane;fontStyle=0;childLayout=stackLayout;horizontal=1;startSize=30;horizontalStack=0;resizeParent=1;resizeParentMax=0;resizeLast=0;collapsible=1;marginBottom=0;whiteSpace=wrap;html=1;" vertex="1" parent="1">
          <mxGeometry x="65" y="400" width="220" height="60" as="geometry">
            <mxRectangle x="65" y="400" width="110" height="30" as="alternateBounds" />
          </mxGeometry>
        </mxCell>
        <mxCell id="dhGdFR0NYjG07fjvQZzu-10" value="generateGame(gameRequest)" style="text;strokeColor=none;fillColor=none;align=left;verticalAlign=middle;spacingLeft=4;spacingRight=4;overflow=hidden;points=[[0,0.5],[1,0.5]];portConstraint=eastwest;rotatable=0;whiteSpace=wrap;html=1;" vertex="1" parent="dhGdFR0NYjG07fjvQZzu-9">
          <mxGeometry y="30" width="220" height="30" as="geometry" />
        </mxCell>
        <mxCell id="dhGdFR0NYjG07fjvQZzu-13" value="&lt;div&gt;&lt;span style=&quot;background-color: initial;&quot;&gt;&lt;br&gt;&lt;/span&gt;&lt;/div&gt;&lt;div&gt;&lt;span style=&quot;background-color: initial;&quot;&gt;if(gameRequest.gameType&amp;nbsp;&lt;/span&gt;&lt;br&gt;&lt;/div&gt;&lt;div&gt;== &quot;Friendly&quot;) {&lt;div&gt;&lt;span style=&quot;background-color: initial;&quot;&gt;}&lt;/span&gt;&lt;div&gt;&lt;div&gt;&lt;br&gt;&lt;/div&gt;&lt;div&gt;else if(gameRequest.gameType&amp;nbsp;&lt;/div&gt;&lt;div&gt;== &quot;Competition&quot;) {&lt;/div&gt;&lt;div&gt;}&lt;/div&gt;&lt;div&gt;&lt;br&gt;&lt;/div&gt;&lt;div&gt;else if(.....) {&lt;/div&gt;&lt;div&gt;}&lt;/div&gt;&lt;div&gt;&lt;br&gt;&lt;/div&gt;&lt;/div&gt;&lt;/div&gt;&lt;/div&gt;" style="ellipse;whiteSpace=wrap;html=1;aspect=fixed;" vertex="1" parent="1">
          <mxGeometry x="50" y="500" width="230" height="230" as="geometry" />
        </mxCell>
        <mxCell id="dhGdFR0NYjG07fjvQZzu-14" value="" style="endArrow=classic;html=1;rounded=0;" edge="1" parent="1">
          <mxGeometry width="50" height="50" relative="1" as="geometry">
            <mxPoint x="174.5" y="460" as="sourcePoint" />
            <mxPoint x="175" y="500" as="targetPoint" />
          </mxGeometry>
        </mxCell>
        <mxCell id="dhGdFR0NYjG07fjvQZzu-15" value="GameController" style="swimlane;fontStyle=0;childLayout=stackLayout;horizontal=1;startSize=30;horizontalStack=0;resizeParent=1;resizeParentMax=0;resizeLast=0;collapsible=1;marginBottom=0;whiteSpace=wrap;html=1;" vertex="1" parent="1">
          <mxGeometry x="500" y="325" width="240" height="60" as="geometry" />
        </mxCell>
        <mxCell id="dhGdFR0NYjG07fjvQZzu-16" value="generate&lt;span style=&quot;background-color: initial;&quot;&gt;Game(gameRequest, gameType)&lt;/span&gt;" style="text;strokeColor=none;fillColor=none;align=left;verticalAlign=middle;spacingLeft=4;spacingRight=4;overflow=hidden;points=[[0,0.5],[1,0.5]];portConstraint=eastwest;rotatable=0;whiteSpace=wrap;html=1;" vertex="1" parent="dhGdFR0NYjG07fjvQZzu-15">
          <mxGeometry y="30" width="240" height="30" as="geometry" />
        </mxCell>
        <mxCell id="dhGdFR0NYjG07fjvQZzu-17" value="GameGeneratorFactory" style="swimlane;fontStyle=0;childLayout=stackLayout;horizontal=1;startSize=30;horizontalStack=0;resizeParent=1;resizeParentMax=0;resizeLast=0;collapsible=1;marginBottom=0;whiteSpace=wrap;html=1;" vertex="1" parent="1">
          <mxGeometry x="880" y="325" width="140" height="60" as="geometry" />
        </mxCell>
        <mxCell id="dhGdFR0NYjG07fjvQZzu-18" value="find(gameType)" style="text;strokeColor=none;fillColor=none;align=left;verticalAlign=middle;spacingLeft=4;spacingRight=4;overflow=hidden;points=[[0,0.5],[1,0.5]];portConstraint=eastwest;rotatable=0;whiteSpace=wrap;html=1;" vertex="1" parent="dhGdFR0NYjG07fjvQZzu-17">
          <mxGeometry y="30" width="140" height="30" as="geometry" />
        </mxCell>
        <mxCell id="dhGdFR0NYjG07fjvQZzu-21" value="" style="endArrow=classic;html=1;rounded=0;exitX=0.037;exitY=0.013;exitDx=0;exitDy=0;exitPerimeter=0;" edge="1" parent="1" source="dhGdFR0NYjG07fjvQZzu-18">
          <mxGeometry width="50" height="50" relative="1" as="geometry">
            <mxPoint x="820" y="354.5" as="sourcePoint" />
            <mxPoint x="740" y="354.5" as="targetPoint" />
          </mxGeometry>
        </mxCell>
        <mxCell id="dhGdFR0NYjG07fjvQZzu-24" value="&lt;div&gt;Interface&lt;/div&gt;GameGenrator" style="ellipse;whiteSpace=wrap;html=1;" vertex="1" parent="1">
          <mxGeometry x="750" y="365" width="120" height="50" as="geometry" />
        </mxCell>
        <mxCell id="dhGdFR0NYjG07fjvQZzu-25" value="" style="endArrow=classic;html=1;rounded=0;entryX=0.5;entryY=0;entryDx=0;entryDy=0;" edge="1" parent="1" target="dhGdFR0NYjG07fjvQZzu-26">
          <mxGeometry width="50" height="50" relative="1" as="geometry">
            <mxPoint x="760" y="405" as="sourcePoint" />
            <mxPoint x="630.5" y="485" as="targetPoint" />
          </mxGeometry>
        </mxCell>
        <mxCell id="dhGdFR0NYjG07fjvQZzu-26" value="CompetitionGameGenerator" style="swimlane;fontStyle=0;childLayout=stackLayout;horizontal=1;startSize=30;horizontalStack=0;resizeParent=1;resizeParentMax=0;resizeLast=0;collapsible=1;marginBottom=0;whiteSpace=wrap;html=1;" vertex="1" parent="1">
          <mxGeometry x="480" y="495" width="220" height="90" as="geometry" />
        </mxCell>
        <mxCell id="dhGdFR0NYjG07fjvQZzu-27" value="generate(gameRequest)" style="text;strokeColor=none;fillColor=none;align=left;verticalAlign=middle;spacingLeft=4;spacingRight=4;overflow=hidden;points=[[0,0.5],[1,0.5]];portConstraint=eastwest;rotatable=0;whiteSpace=wrap;html=1;" vertex="1" parent="dhGdFR0NYjG07fjvQZzu-26">
          <mxGeometry y="30" width="220" height="30" as="geometry" />
        </mxCell>
        <mxCell id="dhGdFR0NYjG07fjvQZzu-28" value="getType()" style="text;strokeColor=none;fillColor=none;align=left;verticalAlign=middle;spacingLeft=4;spacingRight=4;overflow=hidden;points=[[0,0.5],[1,0.5]];portConstraint=eastwest;rotatable=0;whiteSpace=wrap;html=1;" vertex="1" parent="dhGdFR0NYjG07fjvQZzu-26">
          <mxGeometry y="60" width="220" height="30" as="geometry" />
        </mxCell>
        <mxCell id="dhGdFR0NYjG07fjvQZzu-30" value="" style="endArrow=classic;html=1;rounded=0;" edge="1" parent="1">
          <mxGeometry width="50" height="50" relative="1" as="geometry">
            <mxPoint x="810" y="415" as="sourcePoint" />
            <mxPoint x="850" y="495" as="targetPoint" />
          </mxGeometry>
        </mxCell>
        <mxCell id="dhGdFR0NYjG07fjvQZzu-32" value="CompetitionGameGenerator" style="swimlane;fontStyle=0;childLayout=stackLayout;horizontal=1;startSize=30;horizontalStack=0;resizeParent=1;resizeParentMax=0;resizeLast=0;collapsible=1;marginBottom=0;whiteSpace=wrap;html=1;" vertex="1" parent="1">
          <mxGeometry x="730" y="495" width="220" height="90" as="geometry" />
        </mxCell>
        <mxCell id="dhGdFR0NYjG07fjvQZzu-33" value="generate(gameRequest)" style="text;strokeColor=none;fillColor=none;align=left;verticalAlign=middle;spacingLeft=4;spacingRight=4;overflow=hidden;points=[[0,0.5],[1,0.5]];portConstraint=eastwest;rotatable=0;whiteSpace=wrap;html=1;" vertex="1" parent="dhGdFR0NYjG07fjvQZzu-32">
          <mxGeometry y="30" width="220" height="30" as="geometry" />
        </mxCell>
        <mxCell id="dhGdFR0NYjG07fjvQZzu-34" value="getType()" style="text;strokeColor=none;fillColor=none;align=left;verticalAlign=middle;spacingLeft=4;spacingRight=4;overflow=hidden;points=[[0,0.5],[1,0.5]];portConstraint=eastwest;rotatable=0;whiteSpace=wrap;html=1;" vertex="1" parent="dhGdFR0NYjG07fjvQZzu-32">
          <mxGeometry y="60" width="220" height="30" as="geometry" />
        </mxCell>
        <mxCell id="dhGdFR0NYjG07fjvQZzu-37" value="" style="shape=flexArrow;endArrow=classic;html=1;rounded=0;width=18;endSize=5.93;" edge="1" parent="1">
          <mxGeometry width="50" height="50" relative="1" as="geometry">
            <mxPoint x="339" y="494" as="sourcePoint" />
            <mxPoint x="429" y="494" as="targetPoint" />
          </mxGeometry>
        </mxCell>
        <mxCell id="dhGdFR0NYjG07fjvQZzu-38" value="&lt;b&gt;代码重构&lt;/b&gt;" style="text;html=1;align=center;verticalAlign=middle;whiteSpace=wrap;rounded=0;" vertex="1" parent="1">
          <mxGeometry x="354" y="450" width="60" height="30" as="geometry" />
        </mxCell>
      </root>
    </mxGraphModel>
  </diagram>
</mxfile>
